<svg xmlns="http://www.w3.org/2000/svg" viewBox="0 0 64 64"><path fill="#F94646" d="M40 3H24C12.4 3 3 12.4 3 24v16c0 11.6 9.4 21 21 21h16c11.6 0 21-9.4 21-21V24c0-11.6-9.4-21-21-21z"/><path fill="#E2E2E2" d="M36.8 32 48 20.8c.6-.6 1-1.5 1-2.4 0-.9-.4-1.8-1-2.4-1.3-1.3-3.5-1.3-4.8 0L32 27.2 20.8 16c-1.3-1.3-3.5-1.3-4.8 0-.6.6-1 1.5-1 2.4 0 .9.4 1.8 1 2.4L27.2 32 16 43.2c-.6.6-1 1.5-1 2.4s.4 1.8 1 2.4c.6.6 1.5 1 2.4 1 .9 0 1.8-.4 2.4-1L32 36.8 43.2 48c1.3 1.3 3.5 1.3 4.8 0 .6-.6 1-1.5 1-2.4 0-.9-.4-1.8-1-2.4L36.8 32z"/></svg>