<svg xmlns="http://www.w3.org/2000/svg" data-name="Layer 1" viewBox="0 0 130 130"><path fill="#00247d" d="M61.63,24.09c.19,2.63-1.42,5.42-4.81,5.43-9.21,0-18.42.26-27.62.53-4.6.13-9.2.32-13.81.38-1.66,0-7.63-1.23-9.5-.5.6-.14.11,1.52.13,2.33a29.46,29.46,0,0,0,.54,4.28c.44,2.49.8,5,1.2,7.49.85,5.38,2.46,11.47-.63,16.44A4.79,4.79,0,0,1,1,62.4v43.51H129V24.09Z"/><polygon fill="#d9e2e9" points="33 77.74 35.12 83.12 40.65 81.42 37.77 86.44 42.54 89.7 36.82 90.58 37.24 96.34 33 92.42 28.75 96.34 29.18 90.58 23.46 89.7 28.23 86.44 25.35 81.42 30.88 83.12 33 77.74"/><polygon fill="#d9e2e9" points="98.15 34.48 99.19 37.14 101.92 36.3 100.5 38.77 102.85 40.39 100.03 40.82 100.24 43.66 98.15 41.73 96.05 43.66 96.26 40.82 93.44 40.39 95.8 38.77 94.37 36.3 97.1 37.14 98.15 34.48"/><polygon fill="#d9e2e9" points="112.27 51.85 113.31 54.5 116.04 53.66 114.62 56.14 116.97 57.75 114.15 58.18 114.36 61.02 112.27 59.09 110.17 61.02 110.38 58.18 107.56 57.75 109.91 56.14 108.49 53.66 111.22 54.5 112.27 51.85"/><polygon fill="#d9e2e9" points="83.78 58.31 84.83 60.96 87.56 60.13 86.14 62.6 88.49 64.21 85.67 64.64 85.88 67.48 83.78 65.55 81.69 67.48 81.89 64.64 79.08 64.21 81.43 62.6 80.01 60.13 82.73 60.96 83.78 58.31"/><polygon fill="#d9e2e9" points="102.85 68.56 103.58 70.39 105.45 69.81 104.47 71.52 106.09 72.62 104.15 72.92 104.3 74.88 102.85 73.54 101.41 74.88 101.56 72.92 99.62 72.62 101.24 71.52 100.26 69.81 102.13 70.39 102.85 68.56"/><polygon fill="#d9e2e9" points="94.24 85.28 95.29 87.93 98.02 87.1 96.6 89.57 98.95 91.18 96.13 91.61 96.34 94.46 94.24 92.52 92.15 94.46 92.36 91.61 89.54 91.18 91.89 89.57 90.47 87.1 93.2 87.93 94.24 85.28"/><path fill="#00247d" d="M64.86,49.53c-2.35,0-3-2.65-1.91-4.09-.07-.77-.14-1.54-.15-2.31a2.45,2.45,0,0,1,0-.39c0-1.21.69-2.81,2.16-2.93V29.89l-2.43-1.67c-.3,0,1.84-.87,1.57-1A11.8,11.8,0,0,1,62.51,26l-.26-.21h0a7.64,7.64,0,0,0-.69-.47c-.5-.32-2.49.86-2.69.37l1-1.62H37.51a2.32,2.32,0,0,1-2.39,2.15,2.48,2.48,0,0,1-1.36-.38,11.43,11.43,0,0,1-1.85,0,2.45,2.45,0,0,1-1.16.27,2.32,2.32,0,0,1-2.38-2H8.6a2.63,2.63,0,0,1-.73,1.5,2.48,2.48,0,0,1-1.76.73,6,6,0,0,0-.61-.05,2.19,2.19,0,0,1-.63-.1,2.41,2.41,0,0,1-1.05.52,2.27,2.27,0,0,1-2.06,1.14A2.58,2.58,0,0,1,1,27.72V40.08h.08a2.53,2.53,0,0,1,2,4v1.74A2.93,2.93,0,0,1,3.23,47,2.39,2.39,0,0,1,1,49.61v9.9l.34,0a2.49,2.49,0,0,1,2.18,3.63A2.56,2.56,0,0,1,5.46,65H28.73a2.34,2.34,0,0,1,2.4-2.27,2.43,2.43,0,0,1,1.39.41l.6,0a2.4,2.4,0,0,1,1.56-.53A2.36,2.36,0,0,1,37.09,65H58.34a2.38,2.38,0,0,1,2.41-2.65,2.49,2.49,0,0,1,1.32.35,1.17,1.17,0,0,1,.2-.06,2.27,2.27,0,0,1,2.07-1.16,2.71,2.71,0,0,1,.66.08V49.83S64.91,49.53,64.86,49.53Z"/><polygon fill="#f0f5f9" points="65 61.2 65 65 57.4 65 34.66 50.67 36.14 50.03 35.25 49.47 33 48.05 32.05 47.45 28.85 45.43 28.39 45.15 27.43 44.54 22.32 41.32 20.71 40.31 1 27.89 1 24.09 8.6 24.09 31.35 38.42 29.86 39.06 31.84 40.31 33 41.04 33.95 41.64 37.16 43.65 37.61 43.94 38.56 44.54 44.77 48.45 46.38 49.47 65 61.2"/><polygon fill="#ef2b2d" points="65 62.4 65 65 61.8 65 37.16 49.47 37.16 49.47 36.14 48.83 33.95 47.45 33 46.85 29.34 44.54 28.85 44.23 28.39 43.94 24.23 41.32 22.62 40.31 1 26.69 1 24.09 4.19 24.09 28.85 39.62 29.86 40.26 29.93 40.31 32.05 41.64 32.99 42.24 33 42.24 36.66 44.54 37.16 44.86 37.61 45.15 42.87 48.45 44.48 49.47 65 62.4"/><polygon fill="#f0f5f9" points="65 24.09 65 29.89 45.29 42.31 43.68 41.32 38.56 44.54 37.61 45.15 37.16 45.43 33.95 47.45 33 48.05 30.75 49.47 29.86 50.03 28.85 50.67 6.1 65 1 65 1 59.2 19.62 47.47 21.23 48.45 27.43 44.54 28.39 43.94 28.85 43.65 32.05 41.64 33 41.04 34.16 40.31 36.14 39.06 37.16 38.42 59.9 24.09 65 24.09"/><polygon fill="#ef2b2d" points="65 24.09 65 26.69 43.38 40.31 41.77 41.32 37.61 43.94 37.16 44.23 36.66 44.54 33 46.85 32.05 47.45 29.86 48.82 28.85 49.46 28.85 49.47 28.84 49.47 4.19 65 1 65 1 62.4 21.53 49.47 23.14 48.45 28.39 45.15 28.85 44.86 29.34 44.54 32.99 42.24 33 42.24 33.95 41.64 36.07 40.31 36.14 40.26 37.16 39.62 61.8 24.09 65 24.09"/><rect width="10.16" height="64" x="27.92" y="12.89" fill="#f0f5f9" transform="rotate(90 33 44.89)"/><rect width="40.91" height="9.67" x="12.54" y="39.71" fill="#f0f5f9" transform="rotate(90 33 44.54)"/><polygon fill="#ef2b2d" points="65 41.32 36.14 41.32 36.14 24.09 29.86 24.09 29.86 41.32 1 41.32 1 48.45 29.86 48.45 29.86 65 36.14 65 36.14 48.45 65 48.45 65 41.32"/></svg>